<svg height="910" width="720" xmlns="http://www.w3.org/2000/svg">
<rect height="910" fill="#555" width="720"></rect>
<text fill="#7f7" font-family="Courier New" font-size="12" xml:space="preserve">
<tspan x="10" y="26">7 megabytes installed</tspan>
<tspan x="10" y="42"></tspan>
<tspan x="10" y="58">node_modules</tspan>
<tspan x="10" y="74">└─┬ donna-ai@0.1.0 </tspan>
<tspan x="10" y="90">  ├── async@0.9.2 </tspan>
<tspan x="10" y="106">  ├─┬ chalk@1.1.3 </tspan>
<tspan x="10" y="122">  │ ├── ansi-styles@2.2.1 </tspan>
<tspan x="10" y="138">  │ ├── escape-string-regexp@1.0.5 </tspan>
<tspan x="10" y="154">  │ ├─┬ has-ansi@2.0.0 </tspan>
<tspan x="10" y="170">  │ │ └── ansi-regex@2.1.1 </tspan>
<tspan x="10" y="186">  │ ├── strip-ansi@3.0.1 </tspan>
<tspan x="10" y="202">  │ └── supports-color@2.0.0 </tspan>
<tspan x="10" y="218">  ├── lodash@3.10.1 </tspan>
<tspan x="10" y="234">  ├─┬ node-wit@1.1.0 </tspan>
<tspan x="10" y="250">  │ ├─┬ request@2.42.0 </tspan>
<tspan x="10" y="266">  │ │ ├── aws-sign2@0.5.0 </tspan>
<tspan x="10" y="282">  │ │ ├─┬ bl@0.9.5 </tspan>
<tspan x="10" y="298">  │ │ │ └─┬ readable-stream@1.0.34 </tspan>
<tspan x="10" y="314">  │ │ │   ├── core-util-is@1.0.2 </tspan>
<tspan x="10" y="330">  │ │ │   ├── inherits@2.0.3 </tspan>
<tspan x="10" y="346">  │ │ │   ├── isarray@0.0.1 </tspan>
<tspan x="10" y="362">  │ │ │   └── string_decoder@0.10.31 </tspan>
<tspan x="10" y="378">  │ │ ├── caseless@0.6.0 </tspan>
<tspan x="10" y="394">  │ │ ├── forever-agent@0.5.2 </tspan>
<tspan x="10" y="410">  │ │ ├─┬ form-data@0.1.4 </tspan>
<tspan x="10" y="426">  │ │ │ ├─┬ combined-stream@0.0.7 </tspan>
<tspan x="10" y="442">  │ │ │ │ └── delayed-stream@0.0.5 </tspan>
<tspan x="10" y="458">  │ │ │ └── mime@1.2.11 </tspan>
<tspan x="10" y="474">  │ │ ├─┬ hawk@1.1.1 </tspan>
<tspan x="10" y="490">  │ │ │ ├── boom@0.4.2 </tspan>
<tspan x="10" y="506">  │ │ │ ├── cryptiles@0.2.2 </tspan>
<tspan x="10" y="522">  │ │ │ ├── hoek@0.9.1 </tspan>
<tspan x="10" y="538">  │ │ │ └── sntp@0.2.4 </tspan>
<tspan x="10" y="554">  │ │ ├─┬ http-signature@0.10.1 </tspan>
<tspan x="10" y="570">  │ │ │ ├── asn1@0.1.11 </tspan>
<tspan x="10" y="586">  │ │ │ ├── assert-plus@0.1.5 </tspan>
<tspan x="10" y="602">  │ │ │ └── ctype@0.5.3 </tspan>
<tspan x="10" y="618">  │ │ ├── json-stringify-safe@5.0.1 </tspan>
<tspan x="10" y="634">  │ │ ├── mime-types@1.0.2 </tspan>
<tspan x="10" y="650">  │ │ ├── node-uuid@1.4.8 </tspan>
<tspan x="10" y="666">  │ │ ├── oauth-sign@0.4.0 </tspan>
<tspan x="10" y="682">  │ │ ├── qs@1.2.2 </tspan>
<tspan x="10" y="698">  │ │ ├── stringstream@0.0.5 </tspan>
<tspan x="10" y="714">  │ │ ├─┬ tough-cookie@2.3.2 </tspan>
<tspan x="10" y="730">  │ │ │ └── punycode@1.4.1 </tspan>
<tspan x="10" y="746">  │ │ └── tunnel-agent@0.4.3 </tspan>
<tspan x="10" y="762">  │ └── underscore@1.7.0 </tspan>
<tspan x="10" y="778">  ├── q@1.5.0 </tspan>
<tspan x="10" y="794">  └─┬ winston@0.9.0 </tspan>
<tspan x="10" y="810">    ├── colors@1.0.3 </tspan>
<tspan x="10" y="826">    ├── cycle@1.0.3 </tspan>
<tspan x="10" y="842">    ├── eyes@0.1.8 </tspan>
<tspan x="10" y="858">    ├── isstream@0.1.2 </tspan>
<tspan x="10" y="874">    ├── pkginfo@0.3.1 </tspan>
<tspan x="10" y="890">    └── stack-trace@0.0.9</tspan>
</text>
</svg>
